<svg version="1" xmlns="http://www.w3.org/2000/svg" width="933.333" height="933.333" viewBox="0 0 700.000000 700.000000"><path d="M262.6 10.8c-.2.4-.7 3.4-1.1 6.7-.3 3.3-.8 7.3-1 9-.3 1.6-1.4 10.2-2.5 19s-2.2 17.3-2.5 19c-.2 1.6-.7 5.7-1.1 9-.3 3.3-.8 6.7-.9 7.5-.2.8-.6 4.4-1.1 8-.4 3.6-.9 6.8-1 7.2-.1.5-.2 2.2-.3 3.8-.1 2.8-.7 3.3-6.3 5.7-57.4 24.6-105.9 70.8-133.6 127.6-10.6 21.7-20.1 50.5-22.7 68.7-.3 2.5-.8 5.2-1 6-.4 1.7-1.4 9.4-2.5 20-.7 7.8-.5 47.3.3 48.7.3.4.8 3.7 1.1 7.3.4 3.6.8 7.2 1 8 .1.8.6 3.3 1 5.5.7 3.9 1.7 8.6 3.8 17.5 2 8.6 9.1 29.6 13.4 39.7 4.6 10.7 12.8 26.7 15.1 29.4.7.8 1.3 1.9 1.3 2.3 0 1 7.7 12.8 13.4 20.6 3.6 4.9 8.6 11 16.6 20.4 8.8 10.3 36.8 35.6 39.3 35.6.8 0 .3 9.5-.8 14.9-.2 1-.6 4.2-1 7.2-.3 3-1.7 14.2-3.1 24.9-1.3 10.7-2.7 21.3-3 23.5-.6 4.9-1.1 8.8-2.9 22.7-.3 1.8-.7 6-1.1 9.3-.3 3.3-.8 6.3-1.1 6.7-.2.5.2.8.9.9.7 0 2.2.2 3.3.4 1.1.2 4.5.7 7.5 1 3 .3 10 1.2 15.5 2s13.2 1.7 17 2.1c3.9.3 7.2.7 7.5.9.3.2 3.7.6 7.5 1 3.9.4 8.7 1 10.8 1.5 2.6.5 3.7.4 3.8-.4 0-.6.2-2.2.5-3.6.2-1.4 1-8.1 1.9-15 .8-6.9 2-15.7 2.5-19.5.5-3.9 1.1-9.3 1.4-12 .9-7.6 1.5-12.6 2.1-16.5.2-1.9.7-5.5 1.1-8 .3-2.4.7-4.8 1-5.1.2-.4 2.3 0 4.6.8 5.7 2 26.4 7.3 30.8 7.9 1.9.3 4.1.7 4.9 1 .8.2 4.6.9 8.4 1.4 26.6 3.8 64.8 3.2 85.3-1.4 1.2-.2 3.8-.7 5.8-1 7.9-1.3 27.8-6.9 39.6-11.3 19.3-7.1 41.6-18.5 57-29.1 29.8-20.6 55.6-46.9 73.7-75.2 2-3 4.4-6.7 5.4-8.2 1.1-1.5 1.9-2.9 1.9-3.1 0-.2 1.8-3.7 4.1-7.8 12.2-22.1 22.7-52.1 27.3-77.9 3.3-18.8 4.1-27.5 4-47.5 0-29.9-3.3-53.5-11-77.9-15.3-48.6-41.6-89.3-79.4-122.7-8.1-7.1-27.6-21.8-31.9-24-1.4-.8-2.8-1.6-3.1-1.9-2.1-2.3-26.7-14.9-38.5-19.8-20-8.1-37.4-13.1-59-16.7-1.6-.3-4.3-.7-6-1-7.2-1.2-22.4-2-39.8-2h-18.8l.6-5c.3-2.7.7-6.1.9-7.5.3-1.4.8-5.2 1.1-8.5.4-3.3.9-6.9 1-8 .2-1.1.6-4.5.9-7.5.4-3 .9-6.6 1.1-8 .4-2.7 1.4-10.2 2-16.6l.4-4.1-10.7-1.2c-5.9-.7-11.8-1.4-13.2-1.7-1.4-.2-11.7-1.5-23-2.9s-21.7-2.7-23.2-3c-1.5-.2-2.9-.1-3.2.3zM370 159.4c8.5.9 13.4 1.6 15 2.1.8.2 3.1.7 5 1 6.3 1.1 24.2 6.6 32.8 10.1 73.3 30.4 120.2 102 118.6 181-.4 19.6-2.7 34.2-8 51.9-18.2 60.2-65.2 107.8-125.3 127.1-33.7 10.8-71.6 11.8-106.4 2.8-8.4-2.2-20.2-6.2-25.5-8.6-4.1-2-4.2-2.2-3.8-5.7.9-5.7 5.8-44.7 7.1-55.6.4-3.2.8-6.7 1-7.5.3-1.4.6-4.4 2-16 .5-4.7 1.6-13.5 2-16 .2-1.4.9-6.3 1.5-11s1.3-9.9 1.5-11.6c.2-1.7.7-5.7 1-9 .3-3.2.8-7 1-8.4.2-1.4.7-4.3.9-6.5.3-2.2 1-7.6 1.5-12 .6-4.4 1.3-10.3 1.6-13 .3-2.8.8-6.1 1-7.5.2-1.4.7-4.3.9-6.5.3-2.2.8-6.3 1.2-9 .3-2.8.7-6.1.9-7.5.2-1.4.6-5 1-8 1.1-8.1 1.3-9.9 1.9-16.1.4-3.1.9-6.7 1.1-8 .3-1.3.7-4.5 1-7.1.7-7.3 3-25.4 4-31.8.2-1.4.6-4.5.9-7 .3-2.5 1.5-11.7 2.6-20.5 2.2-17 2.7-21 3.5-29 .3-2.8.8-6.1 1-7.5.3-1.4.7-4.5 1-7 1.2-10.5 2.7-20.5 3.1-20.9.4-.5 1.4-.6 15.4-1.9 8.3-.9 27.5-.7 36 .2zm-131.4 39.1c-.3 2.5-.9 6.6-1.2 9.2-.3 2.7-.7 5.9-.9 7.3-.2 1.4-.7 4.7-1 7.5-.3 2.7-.8 6.3-1 8-.2 1.6-.9 6.8-1.5 11.5s-1.2 10.1-1.5 12c-.3 1.9-.7 5.5-1 8-.5 4.5-.9 7.7-2 16s-1.5 11.5-2.5 20c-1.2 9.9-2 15.5-2.5 19-.2 1.4-.7 4.7-1 7.5-1.1 9.8-2.6 22.2-4.5 36-1 7.7-2.1 16.5-2.5 19.5-.6 6-1.4 12.1-2 16-.3 1.4-.7 5-1.1 8-.3 3-.7 6.6-.9 8-.2 1.4-.6 5.2-1 8.5-.3 3.3-.8 6.7-1 7.5-.2.8-.7 4-1 7-1.4 12.4-4.8 37.5-5.1 37.9-.5.5-.9-.1-8.9-11-9-12.5-18.7-30.2-23.1-42.3-9.2-25.2-12.5-42.7-12.7-67.1 0-9.4.2-19.5.7-22.5.4-3 .9-6.9 1.1-8.5 1.6-14.3 8.4-36.8 16-52.9 3.7-7.9 13.5-25 16.7-29.1 12.9-16.6 21.8-26.2 33.3-36.1 5.8-4.8 11.6-9.3 12.3-9.4.2 0 .1 2-.2 4.5z"/></svg>