<svg width="761" height="111" viewBox="0 0 761 111" fill="none" xmlns="http://www.w3.org/2000/svg">
<path d="M0.352 109V8.19999H41.248C48.64 8.19999 55.6 9.54399 62.128 12.232C68.656 14.824 74.272 18.376 78.976 22.888C83.776 27.4 87.568 32.776 90.352 39.016C93.136 45.16 94.528 51.784 94.528 58.888C94.528 65.8 93.136 72.328 90.352 78.472C87.568 84.616 83.776 89.944 78.976 94.456C74.272 98.968 68.656 102.52 62.128 105.112C55.6 107.704 48.64 109 41.248 109H0.352ZM40.672 30.088H25.12V87.112H40.672C44.608 87.112 48.304 86.392 51.76 84.952C55.216 83.512 58.192 81.544 60.688 79.048C63.28 76.456 65.296 73.432 66.736 69.976C68.176 66.52 68.896 62.824 68.896 58.888C68.896 54.856 68.176 51.112 66.736 47.656C65.296 44.104 63.28 41.032 60.688 38.44C58.192 35.848 55.216 33.832 51.76 32.392C48.304 30.856 44.608 30.088 40.672 30.088ZM129.427 110.296C121.363 110.296 114.739 108.088 109.555 103.672C104.371 99.256 101.779 93.592 101.779 86.68C101.779 79.48 104.515 73.864 109.987 69.832C115.555 65.8 123.283 63.784 133.171 63.784C136.147 63.784 139.075 63.976 141.955 64.36C144.835 64.744 147.667 65.272 150.451 65.944V62.2C150.451 58.36 149.203 55.528 146.707 53.704C144.307 51.784 140.707 50.824 135.907 50.824C132.931 50.824 129.571 51.304 125.827 52.264C122.083 53.224 117.763 54.76 112.867 56.872L104.515 39.736C110.659 36.952 116.659 34.888 122.515 33.544C128.467 32.104 134.323 31.384 140.083 31.384C150.643 31.384 158.851 33.928 164.707 39.016C170.563 44.008 173.491 51.064 173.491 60.184V109H150.451V104.392C147.379 106.504 144.115 108.04 140.659 109C137.299 109.864 133.555 110.296 129.427 110.296ZM123.955 86.248C123.955 88.648 125.011 90.52 127.123 91.864C129.235 93.208 132.163 93.88 135.907 93.88C138.691 93.88 141.283 93.592 143.683 93.016C146.179 92.44 148.435 91.528 150.451 90.28V80.488C148.243 79.912 145.987 79.48 143.683 79.192C141.379 78.904 139.027 78.76 136.627 78.76C132.595 78.76 129.475 79.432 127.267 80.776C125.059 82.024 123.955 83.848 123.955 86.248ZM187.356 109V32.824H210.684V38.008C213.468 35.896 216.588 34.264 220.044 33.112C223.596 31.96 227.292 31.384 231.132 31.384C240.06 31.384 247.356 34.264 253.02 40.024C258.684 45.784 261.516 53.128 261.516 62.056V109H238.188V65.224C238.188 61.096 236.892 57.784 234.3 55.288C231.804 52.696 228.492 51.4 224.364 51.4C221.388 51.4 218.748 51.928 216.444 52.984C214.14 54.04 212.22 55.528 210.684 57.448V109H187.356ZM287.052 25.768C283.5 25.768 280.476 24.52 277.98 22.024C275.484 19.528 274.236 16.504 274.236 12.952C274.236 9.39999 275.484 6.37599 277.98 3.88C280.476 1.384 283.5 0.135994 287.052 0.135994C290.604 0.135994 293.628 1.384 296.124 3.88C298.62 6.37599 299.868 9.39999 299.868 12.952C299.868 16.504 298.62 19.528 296.124 22.024C293.628 24.52 290.604 25.768 287.052 25.768ZM298.716 32.824V109H275.388V32.824H298.716ZM336.403 3.16V109H313.075V8.19999L336.403 3.16ZM350.763 109V8.19999L374.091 3.16V63.928L404.475 32.824H430.539L396.699 67.24L432.843 109H403.323L374.091 74.872V109H350.763ZM448.348 25.768C444.796 25.768 441.772 24.52 439.276 22.024C436.78 19.528 435.532 16.504 435.532 12.952C435.532 9.39999 436.78 6.37599 439.276 3.88C441.772 1.384 444.796 0.135994 448.348 0.135994C451.9 0.135994 454.924 1.384 457.42 3.88C459.916 6.37599 461.164 9.39999 461.164 12.952C461.164 16.504 459.916 19.528 457.42 22.024C454.924 24.52 451.9 25.768 448.348 25.768ZM460.012 32.824V109H436.684V32.824H460.012ZM474.372 109V32.824H497.7V38.008C500.484 35.896 503.604 34.264 507.06 33.112C510.612 31.96 514.308 31.384 518.148 31.384C527.076 31.384 534.372 34.264 540.036 40.024C545.7 45.784 548.532 53.128 548.532 62.056V109H525.204V65.224C525.204 61.096 523.908 57.784 521.316 55.288C518.82 52.696 515.508 51.4 511.38 51.4C508.404 51.4 505.764 51.928 503.46 52.984C501.156 54.04 499.236 55.528 497.7 57.448V109H474.372ZM562.403 109V8.19999L585.731 3.16V63.928L616.115 32.824H642.179L608.339 67.24L644.483 109H614.963L585.731 74.872V109H562.403ZM659.989 25.768C656.437 25.768 653.413 24.52 650.917 22.024C648.421 19.528 647.173 16.504 647.173 12.952C647.173 9.39999 648.421 6.37599 650.917 3.88C653.413 1.384 656.437 0.135994 659.989 0.135994C663.541 0.135994 666.565 1.384 669.061 3.88C671.557 6.37599 672.805 9.39999 672.805 12.952C672.805 16.504 671.557 19.528 669.061 22.024C666.565 24.52 663.541 25.768 659.989 25.768ZM671.653 32.824V109H648.325V32.824H671.653ZM686.013 109V32.824H709.341V38.008C712.125 35.896 715.245 34.264 718.701 33.112C722.253 31.96 725.949 31.384 729.789 31.384C738.717 31.384 746.013 34.264 751.677 40.024C757.341 45.784 760.172 53.128 760.172 62.056V109H736.845V65.224C736.845 61.096 735.549 57.784 732.957 55.288C730.461 52.696 727.149 51.4 723.021 51.4C720.045 51.4 717.405 51.928 715.101 52.984C712.797 54.04 710.877 55.528 709.341 57.448V109H686.013Z"/>
</svg>
