<svg width="937" height="191" viewBox="0 0 937 191" fill="none" xmlns="http://www.w3.org/2000/svg">
<path d="M170.352 147V46.2H211.248C218.64 46.2 225.6 47.544 232.128 50.232C238.656 52.824 244.272 56.376 248.976 60.888C253.776 65.4 257.568 70.776 260.352 77.016C263.136 83.16 264.528 89.784 264.528 96.888C264.528 103.8 263.136 110.328 260.352 116.472C257.568 122.616 253.776 127.944 248.976 132.456C244.272 136.968 238.656 140.52 232.128 143.112C225.6 145.704 218.64 147 211.248 147H170.352ZM210.672 68.088H195.12V125.112H210.672C214.608 125.112 218.304 124.392 221.76 122.952C225.216 121.512 228.192 119.544 230.688 117.048C233.28 114.456 235.296 111.432 236.736 107.976C238.176 104.52 238.896 100.824 238.896 96.888C238.896 92.856 238.176 89.112 236.736 85.656C235.296 82.104 233.28 79.032 230.688 76.44C228.192 73.848 225.216 71.832 221.76 70.392C218.304 68.856 214.608 68.088 210.672 68.088ZM299.427 148.296C291.363 148.296 284.739 146.088 279.555 141.672C274.371 137.256 271.779 131.592 271.779 124.68C271.779 117.48 274.515 111.864 279.987 107.832C285.555 103.8 293.283 101.784 303.171 101.784C306.147 101.784 309.075 101.976 311.955 102.36C314.835 102.744 317.667 103.272 320.451 103.944V100.2C320.451 96.36 319.203 93.528 316.707 91.704C314.307 89.784 310.707 88.824 305.907 88.824C302.931 88.824 299.571 89.304 295.827 90.264C292.083 91.224 287.763 92.76 282.867 94.872L274.515 77.736C280.659 74.952 286.659 72.888 292.515 71.544C298.467 70.104 304.323 69.384 310.083 69.384C320.643 69.384 328.851 71.928 334.707 77.016C340.563 82.008 343.491 89.064 343.491 98.184V147H320.451V142.392C317.379 144.504 314.115 146.04 310.659 147C307.299 147.864 303.555 148.296 299.427 148.296ZM293.955 124.248C293.955 126.648 295.011 128.52 297.123 129.864C299.235 131.208 302.163 131.88 305.907 131.88C308.691 131.88 311.283 131.592 313.683 131.016C316.179 130.44 318.435 129.528 320.451 128.28V118.488C318.243 117.912 315.987 117.48 313.683 117.192C311.379 116.904 309.027 116.76 306.627 116.76C302.595 116.76 299.475 117.432 297.267 118.776C295.059 120.024 293.955 121.848 293.955 124.248ZM357.356 147V70.824H380.684V76.008C383.468 73.896 386.588 72.264 390.044 71.112C393.596 69.96 397.292 69.384 401.132 69.384C410.06 69.384 417.356 72.264 423.02 78.024C428.684 83.784 431.516 91.128 431.516 100.056V147H408.188V103.224C408.188 99.096 406.892 95.784 404.3 93.288C401.804 90.696 398.492 89.4 394.364 89.4C391.388 89.4 388.748 89.928 386.444 90.984C384.14 92.04 382.22 93.528 380.684 95.448V147H357.356ZM457.052 63.768C453.5 63.768 450.476 62.52 447.98 60.024C445.484 57.528 444.236 54.504 444.236 50.952C444.236 47.4 445.484 44.376 447.98 41.88C450.476 39.384 453.5 38.136 457.052 38.136C460.604 38.136 463.628 39.384 466.124 41.88C468.62 44.376 469.868 47.4 469.868 50.952C469.868 54.504 468.62 57.528 466.124 60.024C463.628 62.52 460.604 63.768 457.052 63.768ZM468.716 70.824V147H445.388V70.824H468.716ZM506.403 41.16V147H483.075V46.2L506.403 41.16ZM520.763 147V46.2L544.091 41.16V101.928L574.475 70.824H600.539L566.699 105.24L602.843 147H573.323L544.091 112.872V147H520.763ZM618.348 63.768C614.796 63.768 611.772 62.52 609.276 60.024C606.78 57.528 605.532 54.504 605.532 50.952C605.532 47.4 606.78 44.376 609.276 41.88C611.772 39.384 614.796 38.136 618.348 38.136C621.9 38.136 624.924 39.384 627.42 41.88C629.916 44.376 631.164 47.4 631.164 50.952C631.164 54.504 629.916 57.528 627.42 60.024C624.924 62.52 621.9 63.768 618.348 63.768ZM630.012 70.824V147H606.684V70.824H630.012ZM644.372 147V70.824H667.7V76.008C670.484 73.896 673.604 72.264 677.06 71.112C680.612 69.96 684.308 69.384 688.148 69.384C697.076 69.384 704.372 72.264 710.036 78.024C715.7 83.784 718.532 91.128 718.532 100.056V147H695.204V103.224C695.204 99.096 693.908 95.784 691.316 93.288C688.82 90.696 685.508 89.4 681.38 89.4C678.404 89.4 675.764 89.928 673.46 90.984C671.156 92.04 669.236 93.528 667.7 95.448V147H644.372ZM732.403 147V46.2L755.731 41.16V101.928L786.115 70.824H812.179L778.339 105.24L814.483 147H784.963L755.731 112.872V147H732.403ZM829.989 63.768C826.437 63.768 823.413 62.52 820.917 60.024C818.421 57.528 817.173 54.504 817.173 50.952C817.173 47.4 818.421 44.376 820.917 41.88C823.413 39.384 826.437 38.136 829.989 38.136C833.541 38.136 836.565 39.384 839.061 41.88C841.557 44.376 842.805 47.4 842.805 50.952C842.805 54.504 841.557 57.528 839.061 60.024C836.565 62.52 833.541 63.768 829.989 63.768ZM841.653 70.824V147H818.325V70.824H841.653ZM856.013 147V70.824H879.341V76.008C882.125 73.896 885.245 72.264 888.701 71.112C892.253 69.96 895.949 69.384 899.789 69.384C908.717 69.384 916.013 72.264 921.677 78.024C927.341 83.784 930.172 91.128 930.172 100.056V147H906.845V103.224C906.845 99.096 905.549 95.784 902.957 93.288C900.461 90.696 897.149 89.4 893.021 89.4C890.045 89.4 887.405 89.928 885.101 90.984C882.797 92.04 880.877 93.528 879.341 95.448V147H856.013Z"/>
<path fill-rule="evenodd" clip-rule="evenodd" d="M37.7604 40.0939L41.5028 11L61.3393 13.5516L58.6211 34.6839C60.4229 34.5317 62.2459 34.4541 64.0871 34.4541C99.4815 34.4541 128.174 63.1469 128.174 98.5412C128.174 133.936 99.4815 162.628 64.0871 162.628C56.5638 162.628 49.3432 161.332 42.6366 158.95L40.1153 178.552L20.2787 176L23.828 148.407C9.29403 136.659 0 118.685 0 98.5412C0 72.53 15.4962 50.1381 37.7604 40.0939ZM34.4395 65.9112C25.5689 73.9758 20 85.6082 20 98.5412C20 107.424 22.6268 115.692 27.1459 122.613L34.4395 65.9112ZM45.2767 138.426C50.982 141.121 57.3585 142.628 64.0871 142.628C88.4358 142.628 108.174 122.89 108.174 98.5412C108.174 74.1926 88.4358 54.4541 64.0871 54.4541C61.3185 54.4541 58.6095 54.7093 55.9824 55.1975L45.2767 138.426Z"/>
</svg>
