<svg width="129" height="168" viewBox="0 0 129 168" fill="none" xmlns="http://www.w3.org/2000/svg">
<path fill-rule="evenodd" clip-rule="evenodd" d="M37.7604 29.0939L41.5028 0L61.3393 2.55159L58.6211 23.6839C60.4229 23.5317 62.2459 23.4541 64.0871 23.4541C99.4815 23.4541 128.174 52.1469 128.174 87.5412C128.174 122.936 99.4815 151.628 64.0871 151.628C56.5638 151.628 49.3432 150.332 42.6366 147.95L40.1153 167.552L20.2787 165L23.828 137.407C9.29403 125.659 0 107.685 0 87.5412C0 61.53 15.4962 39.1381 37.7604 29.0939ZM34.4395 54.9112C25.5689 62.9758 20 74.6082 20 87.5412C20 96.4236 22.6268 104.692 27.1459 111.613L34.4395 54.9112ZM45.2767 127.426C50.982 130.121 57.3585 131.628 64.0871 131.628C88.4358 131.628 108.174 111.89 108.174 87.5412C108.174 63.1926 88.4358 43.4541 64.0871 43.4541C61.3185 43.4541 58.6095 43.7093 55.9824 44.1975L45.2767 127.426Z"/>
</svg>
